<svg id="Layer_1" data-name="Layer 1" xmlns="http://www.w3.org/2000/svg" viewBox="0 0 384.31 131.52"><path d="M212.46,8.56c-14.32,0-28.65.65-43,.76-14.55.11-29.13-.44-43.67.58s-28.94,1.75-43.38,3c-11.31,1-22.9,1.82-34,4.29-9.45,2.08-19.09,6-24.36,14.51C18.6,40.52,17.32,51.82,16.6,62c-1.42,20.69,1,46.46,21.59,57.12,9.49,4.91,20.58,5.67,31,6.72a402.76,402.76,0,0,0,43,1.68c14.51-.11,29-.58,43.49-.55,14.33,0,28.69.22,43,.4,28.73.4,57.49.73,86.21-.33,13.67-.5,27.34-1.52,41-2.5,10.1-.73,20.36-1.46,30.25-3.86,8.36-2,16.54-5.6,22.43-12.11,5.64-6.21,7.67-14.21,9.27-22.25a144.41,144.41,0,0,0,3-27.7c0-9.06-1-18.73-5.52-26.73-5.06-8.87-13.89-13.27-23.45-15.52a248.87,248.87,0,0,0-38-6c-14.32-1.13-28.72-1.09-43.08-1.05-13.71,0-27.38-.22-41.09-.48-9.24-.18-18.47-.21-27.71-.21a1.35,1.35,0,0,0,0,2.69c12,0,24,.07,36,.43,14.4.44,28.8.22,43.19.26S319.79,12.3,334,14c6.8.8,13.53,2.15,20.25,3.49a83.45,83.45,0,0,1,14.8,3.85c20.51,8,20.25,33.24,18.18,51.56-.91,8-2.18,16.58-4.94,24.22-3.17,8.72-10.08,14.87-18.51,18.32-9.13,3.75-19.2,4.84-28.94,5.67-12.55,1.13-25.13,2-37.71,2.69-28.79,1.53-57.63,1.39-86.42,1s-57.52-.65-86.28-.14c-14.55.25-29.09.36-43.63-.55-6.37-.4-12.73-1-19.09-1.74a84.36,84.36,0,0,1-16.18-3.17c-11.09-3.49-18.95-11.45-22.76-22.36C19,86.18,18.6,74.4,19.21,63.2c.62-10.47,2-22.1,7.78-31.12,5.68-8.8,17.46-11.6,27.09-13.27,11.35-2,22.94-2.8,34.4-3.71,13.85-1.09,27.74-2,41.63-2.76,13.67-.73,27.38-.18,41.08-.33s27.49-.76,41.24-.76a1.35,1.35,0,0,0,0-2.69Z" transform="translate(-6.5 -8.56)" style="fill:#e7cb1d"/><path d="M35.36,21.72c-3.6,1.56-6.73,4.32-9.64,6.94a88.94,88.94,0,0,0-9.38,9.82c-6.62,8.18-7.89,19.85-8.91,30C6.31,79.6,5.65,91.93,8.78,102.8a41.35,41.35,0,0,0,6,12.91,56.28,56.28,0,0,0,9.42,9.6,40.08,40.08,0,0,0,12.51,7.63c5,1.86,10.5,2.58,15.85,3.16,11.42,1.31,22.9,1.71,34.36,1.93,26.69.55,53.41.62,80.1,1.16,52.25,1.1,104.49,2,156.56-3.05A166,166,0,0,0,351,131.63c7.64-2,15.75-4.8,22.4-9.23,5.17-3.46,8.11-8.4,9.93-14.22a160.4,160.4,0,0,0,5.27-24.07c.25-1.67-2.33-2.4-2.58-.73-.84,5.53-1.71,11-3.09,16.44-1.27,5-2.51,10.29-5.27,14.65-2.33,3.67-6,6.11-9.86,8.07a90.83,90.83,0,0,1-17.49,6.51c-13.05,3.6-26.76,4.55-40.21,5.6-14,1.13-28,1.75-42,2.22-51.67,1.67-103.33-.87-155-1.24-12.58-.07-25.16-.14-37.74-.58-11.2-.4-22.83-.8-33.74-3.45a33.91,33.91,0,0,1-14-6.91,69.51,69.51,0,0,1-10.18-9.89c-6.58-8.58-7.93-19.75-8-30.18a160.47,160.47,0,0,1,1.27-20.91c.84-6.72,2.11-14.54,5.6-20.47C18.52,39.39,22,36.08,25.14,33c3.38-3.35,7.16-7,11.6-8.87,1.56-.8.18-3.09-1.38-2.4Z" transform="translate(-6.5 -8.56)" style="fill:#e7cb1d"/><path d="M20.85,40.52c-3.35.4-5.67,3.56-8.22,5.45-.69.51,0,1.67.69,1.16,2.26-1.67,4.62-4.94,7.57-5.27.8-.11.8-1.45,0-1.34Z" transform="translate(-6.5 -8.56)" style="fill:#e7cb1d"/><path d="M20.09,45c-3.79,1.13-6.19,4.43-9.38,6.47-.73.47-.08,1.64.69,1.16,3.09-2,5.45-5.23,9-6.32.8-.26.44-1.57-.36-1.31Z" transform="translate(-6.5 -8.56)" style="fill:#e7cb1d"/><path d="M19.32,50.11c-3.23,2.37-6.51,4.73-9.81,7-.7.47,0,1.63.69,1.16,3.31-2.26,6.58-4.62,9.81-7,.66-.51,0-1.67-.69-1.17Z" transform="translate(-6.5 -8.56)" style="fill:#e7cb1d"/><path d="M18.27,55.31a43.43,43.43,0,0,0-9.06,8.15c-.54.65.4,1.6.95.94A42.45,42.45,0,0,1,19,56.48c.69-.48,0-1.64-.69-1.17Z" transform="translate(-6.5 -8.56)" style="fill:#e7cb1d"/><path d="M18.41,61.53c-3.92,1.6-6.5,5.27-9.38,8.22a.67.67,0,0,0,1,.94c2.65-2.72,5.16-6.4,8.8-7.85.8-.36.47-1.64-.37-1.31Z" transform="translate(-6.5 -8.56)" style="fill:#e7cb1d"/><path d="M17.83,67C13.76,70,10.41,73.86,7,77.64c-.58.65.36,1.6,1,.94,3.34-3.67,6.58-7.49,10.58-10.47.69-.51,0-1.67-.66-1.16Z" transform="translate(-6.5 -8.56)" style="fill:#e7cb1d"/><path d="M17.25,72.69C13.76,76,10.12,79.27,7.32,83.24c-.51.69.66,1.38,1.17.69,2.76-3.86,6.29-7,9.71-10.29.61-.58-.33-1.53-.95-1Z" transform="translate(-6.5 -8.56)" style="fill:#e7cb1d"/><path d="M18.12,79c-4.36,2.44-7,6.88-10.25,10.51-.58.66.36,1.6.94,1,3.17-3.53,5.75-8,10-10.33.73-.36.08-1.53-.69-1.13Z" transform="translate(-6.5 -8.56)" style="fill:#e7cb1d"/><path d="M18,85.42a18.56,18.56,0,0,0-4,4.69c-1.63,2.29-3.85,4.11-5.6,6.29-.54.65.4,1.6.95.95,1.52-1.9,3.31-3.57,4.91-5.39s2.58-4,4.47-5.38c.69-.51,0-1.67-.69-1.16Z" transform="translate(-6.5 -8.56)" style="fill:#e7cb1d"/><path d="M19.76,89.82a26.54,26.54,0,0,0-4.29,5.34c-1.78,2.66-4.07,5-6,7.57-.51.69.65,1.38,1.16.69,1.64-2.26,3.49-4.29,5.16-6.47s2.8-4.44,4.84-6.19c.72-.54-.26-1.49-.91-.94Z" transform="translate(-6.5 -8.56)" style="fill:#e7cb1d"/><path d="M21.39,95.49a35.59,35.59,0,0,0-4,5.75c-1.38,2.25-3.13,4.18-4.25,6.58-.37.76.79,1.45,1.16.69a46,46,0,0,1,3.85-6c1.46-2,2.48-4.25,4.22-6.1.62-.62-.33-1.6-.95-1Z" transform="translate(-6.5 -8.56)" style="fill:#e7cb1d"/><path d="M22.81,101.85c-1.31,2-2.58,4-3.89,6a29.82,29.82,0,0,0-3.2,5.45c-.29.8,1,1.17,1.31.37a27.71,27.71,0,0,1,3.06-5.13c1.3-2,2.54-4,3.89-6,.43-.72-.69-1.38-1.17-.69Z" transform="translate(-6.5 -8.56)" style="fill:#e7cb1d"/><path d="M25.9,106.18c-2.54,3.89-5.52,7.49-7.74,11.6-.4.76.76,1.45,1.16.69,2.22-4.11,5.2-7.71,7.75-11.6.47-.73-.69-1.42-1.17-.69Z" transform="translate(-6.5 -8.56)" style="fill:#e7cb1d"/><path d="M29.36,110.51c-2.4,4-4.87,8-7,12.21-.4.77.76,1.46,1.16.69,2.11-4.18,4.58-8.18,7-12.21a.68.68,0,0,0-1.16-.69Z" transform="translate(-6.5 -8.56)" style="fill:#e7cb1d"/><path d="M32.81,115.45c.15,1.27-1.16,2.69-1.82,3.71-1.2,1.86-2.14,3.78-3.49,5.49-.54.66.4,1.64.95.95a60.35,60.35,0,0,0,3.71-5.78c.76-1.28,2.18-2.77,2-4.37-.08-.83-1.42-.83-1.35,0Z" transform="translate(-6.5 -8.56)" style="fill:#e7cb1d"/><path d="M37.9,118a39.12,39.12,0,0,1-3.42,6.22c-1.09,1.74-2.65,3.13-3.41,5.09-.33.8,1,1.16,1.31.36.76-2,2.54-3.56,3.67-5.38a37.7,37.7,0,0,0,3.2-5.93c.25-.8-1-1.16-1.35-.36Z" transform="translate(-6.5 -8.56)" style="fill:#e7cb1d"/><path d="M45.43,120.62c-2.44,3.56-4.4,7.52-7.78,10.28-.66.55.29,1.5.94.95,3.49-2.84,5.49-6.91,8-10.54.47-.73-.69-1.39-1.16-.69Z" transform="translate(-6.5 -8.56)" style="fill:#e7cb1d"/><path d="M52.74,123c-1.93,3.68-5.28,6.26-7.6,9.68-.48.72.69,1.38,1.16.69,2.33-3.42,5.64-6,7.6-9.67.36-.77-.76-1.46-1.16-.7Z" transform="translate(-6.5 -8.56)" style="fill:#e7cb1d"/><path d="M60.55,124.25c-1.34.58-2.43,2.22-3.38,3.31-1.78,2.07-4,3.74-5.67,5.85-.54.66.4,1.6,1,1,1.67-2,3.7-3.75,5.49-5.67,1-1,2-2.73,3.27-3.31.8-.29.14-1.46-.66-1.13Z" transform="translate(-6.5 -8.56)" style="fill:#e7cb1d"/><path d="M66.55,124.94c-2.11,3-4.54,5.71-6.91,8.51-.54.65.4,1.6,1,1,2.4-2.88,5-5.68,7.09-8.77.55-.72-.62-1.38-1.13-.69Z" transform="translate(-6.5 -8.56)" style="fill:#e7cb1d"/><path d="M74.77,125.56a115,115,0,0,0-7.16,9.67.68.68,0,0,0,1.16.69,97.77,97.77,0,0,1,7.16-9.67c.51-.73-.65-1.38-1.16-.69Z" transform="translate(-6.5 -8.56)" style="fill:#e7cb1d"/><path d="M81.9,125.38c-1.86,3.74-5.09,6.47-7.31,10-.47.73.69,1.42,1.16.69,2.22-3.49,5.46-6.22,7.31-10,.36-.76-.8-1.46-1.16-.69Z" transform="translate(-6.5 -8.56)" style="fill:#e7cb1d"/><path d="M90.19,125.71c-2.84,3.2-5.06,6.9-8.33,9.67-.65.54.29,1.49,1,.94,3.27-2.8,5.52-6.47,8.32-9.67.58-.65-.36-1.6-.94-.94Z" transform="translate(-6.5 -8.56)" style="fill:#e7cb1d"/><path d="M97.35,126.14a40.26,40.26,0,0,0-7.42,10.11c-.4.76.77,1.45,1.17.69a38.25,38.25,0,0,1,7.19-9.85c.59-.62-.36-1.57-.94-1Z" transform="translate(-6.5 -8.56)" style="fill:#e7cb1d"/><path d="M104.22,125.85a55.22,55.22,0,0,1-3.67,6.11,24.69,24.69,0,0,0-3,4c-.4.76.76,1.45,1.16.69.84-1.67,2.33-2.76,3.28-4.33,1.16-1.92,2.25-3.89,3.41-5.81a.67.67,0,0,0-1.16-.66Z" transform="translate(-6.5 -8.56)" style="fill:#e7cb1d"/><path d="M110,126.43c-2,3-3.67,6.18-5.82,9.09-.51.69.66,1.38,1.16.69,2.15-2.91,3.79-6.11,5.82-9.09.47-.72-.69-1.38-1.16-.69Z" transform="translate(-6.5 -8.56)" style="fill:#e7cb1d"/><path d="M115.75,126.47c-.51,3.82-4.4,6.29-5.78,9.78-.33.8,1,1.16,1.3.36,1.46-3.71,5.28-6,5.82-10.14.11-.84-1.23-.84-1.34,0Z" transform="translate(-6.5 -8.56)" style="fill:#e7cb1d"/><path d="M122.26,125.71c-1.68,3.78-4.77,6.76-6,10.72-.25.84,1,1.16,1.31.37,1.23-3.86,4.25-6.77,5.89-10.4.33-.8-.84-1.49-1.16-.69Z" transform="translate(-6.5 -8.56)" style="fill:#e7cb1d"/><path d="M127.82,125.71a45.09,45.09,0,0,1-5.6,10.72c-.51.69.65,1.38,1.16.69a44,44,0,0,0,5.71-11c.33-.88-1-1.2-1.27-.4Z" transform="translate(-6.5 -8.56)" style="fill:#e7cb1d"/><path d="M135.93,125.71c-2.08,3.45-4,7-6,10.58a.68.68,0,0,0,1.17.69c2-3.53,3.85-7.09,6-10.58a.67.67,0,1,0-1.16-.69Z" transform="translate(-6.5 -8.56)" style="fill:#e7cb1d"/><path d="M141.31,126.58c-1.6,3.27-3.67,6.32-4.84,9.85-.25.84,1,1.16,1.31.37,1.09-3.39,3.13-6.33,4.69-9.53.36-.76-.8-1.46-1.16-.69Z" transform="translate(-6.5 -8.56)" style="fill:#e7cb1d"/><path d="M148.58,125.71c-1.6,3.78-4.25,7-5.56,10.87-.29.83,1,1.16,1.31.36,1.27-3.78,3.89-6.91,5.45-10.54.29-.8-.84-1.49-1.2-.69Z" transform="translate(-6.5 -8.56)" style="fill:#e7cb1d"/><path d="M156.65,125.56c-1.82,3.49-4.36,6.62-5.42,10.44a.68.68,0,0,0,1.31.36c1.06-3.71,3.53-6.73,5.31-10.11.33-.8-.84-1.49-1.2-.69Z" transform="translate(-6.5 -8.56)" style="fill:#e7cb1d"/><path d="M164.54,125.09c-2,3.52-4.22,6.87-5.42,10.72-.25.84,1,1.17,1.31.37,1.2-3.75,3.42-7,5.31-10.4.36-.77-.8-1.46-1.2-.69Z" transform="translate(-6.5 -8.56)" style="fill:#e7cb1d"/><path d="M170.4,126c-1.1,4.07-4.26,7.34-4.66,11.63-.07.87,1.27.84,1.35,0,.36-4.11,3.52-7.34,4.58-11.27a.66.66,0,0,0-1.27-.36Z" transform="translate(-6.5 -8.56)" style="fill:#e7cb1d"/><path d="M178.9,125.41c-1.38,4.08-4.54,7.31-5.34,11.6-.15.84,1.13,1.2,1.31.37.8-4.26,4-7.57,5.34-11.6.26-.84-1.05-1.2-1.31-.37Z" transform="translate(-6.5 -8.56)" style="fill:#e7cb1d"/><path d="M185,126.29c-1,3.85-3.82,7-4.47,11-.15.84,1.16,1.2,1.31.37.65-4,3.42-7.17,4.47-11a.68.68,0,0,0-1.31-.36Z" transform="translate(-6.5 -8.56)" style="fill:#e7cb1d"/><path d="M192.07,125.56a21.15,21.15,0,0,0-2.51,5.2,54.48,54.48,0,0,0-2.62,6.73.68.68,0,0,0,1.31.36,45,45,0,0,1,2.4-6.11,23.83,23.83,0,0,1,2.61-5.49c.48-.73-.69-1.38-1.19-.69Z" transform="translate(-6.5 -8.56)" style="fill:#e7cb1d"/><path d="M198.68,126.14c-1.27,3.86-3.63,7.16-4.91,11-.25.83,1,1.16,1.31.36,1.28-3.85,3.64-7.16,4.91-11,.26-.84-1-1.17-1.31-.37Z" transform="translate(-6.5 -8.56)" style="fill:#e7cb1d"/><path d="M206,125.71c-1,4-2.94,7.52-4.84,11.16-.4.76.77,1.45,1.17.69,1.93-3.71,4-7.38,5-11.49.18-.84-1.09-1.2-1.31-.36Z" transform="translate(-6.5 -8.56)" style="fill:#e7cb1d"/><path d="M213.37,126.14a25.24,25.24,0,0,0-2.65,5.75c-.95,2.43-2.44,4.61-3.35,7.05-.32.8,1,1.16,1.31.36.84-2.18,2.11-4.14,3-6.25s1.49-4.33,2.84-6.22c.47-.72-.7-1.38-1.17-.69Z" transform="translate(-6.5 -8.56)" style="fill:#e7cb1d"/><path d="M220,127.05a45.49,45.49,0,0,1-4.11,10.25c-.4.77.76,1.46,1.16.69a48,48,0,0,0,4.26-10.58c.18-.87-1.13-1.2-1.31-.36Z" transform="translate(-6.5 -8.56)" style="fill:#e7cb1d"/><path d="M226.35,126c-.29,4-2.43,7.57-3.85,11.27-.29.8,1,1.17,1.31.37,1.45-3.86,3.6-7.46,3.89-11.64.07-.87-1.28-.87-1.35,0Z" transform="translate(-6.5 -8.56)" style="fill:#e7cb1d"/><path d="M234.42,126.43c-1.49,3.75-2.69,7.6-4.18,11.31-.32.8,1,1.16,1.31.36,1.49-3.74,2.66-7.6,4.18-11.3.33-.8-1-1.13-1.31-.37Z" transform="translate(-6.5 -8.56)" style="fill:#e7cb1d"/><path d="M241,126.76c-1.2,4.25-2.95,8.33-4.47,12.51-.29.8,1,1.16,1.3.36,1.5-4.18,3.24-8.25,4.48-12.51a.68.68,0,0,0-1.31-.36Z" transform="translate(-6.5 -8.56)" style="fill:#e7cb1d"/><path d="M248.42,126.58c-1,3.63-2.73,7-3.42,10.72-.14.84,1.13,1.2,1.31.37.69-3.71,2.44-7.09,3.42-10.73a.68.68,0,0,0-1.31-.36Z" transform="translate(-6.5 -8.56)" style="fill:#e7cb1d"/><path d="M255.58,126.58c-.87,3.74-3.12,7-3.7,10.87-.15.84,1.16,1.2,1.3.36.59-3.81,2.88-7.09,3.71-10.87.15-.83-1.12-1.2-1.31-.36Z" transform="translate(-6.5 -8.56)" style="fill:#e7cb1d"/><path d="M262.27,126.76a77.57,77.57,0,0,1-2.69,10.11c-.25.83,1,1.16,1.31.36a87.61,87.61,0,0,0,2.69-10.11c.15-.87-1.16-1.23-1.31-.36Z" transform="translate(-6.5 -8.56)" style="fill:#e7cb1d"/><path d="M269.55,126.18c-.29,3.92-2.58,7.27-3.71,11-.26.83,1.05,1.16,1.31.36,1.16-3.85,3.45-7.27,3.74-11.34,0-.87-1.27-.87-1.34,0Z" transform="translate(-6.5 -8.56)" style="fill:#e7cb1d"/><path d="M276.56,126.29A76.58,76.58,0,0,0,273,137.45c-.18.84,1.13,1.2,1.31.36a80.47,80.47,0,0,1,3.56-11.16c.29-.8-1-1.16-1.31-.36Z" transform="translate(-6.5 -8.56)" style="fill:#e7cb1d"/><path d="M284.74,125.71c-1,3.81-3.16,7.19-4.18,11a.68.68,0,0,0,1.31.37c1-3.82,3.2-7.2,4.18-11a.68.68,0,0,0-1.31-.36Z" transform="translate(-6.5 -8.56)" style="fill:#e7cb1d"/><path d="M290.53,125.12c-.19,3.93-3.09,7-3.71,10.84-.15.84,1.16,1.2,1.31.36.61-4,3.56-7.12,3.74-11.2,0-.83-1.31-.83-1.34,0Z" transform="translate(-6.5 -8.56)" style="fill:#e7cb1d"/><path d="M296.2,124.83c-.15,4.55-2.55,8.47-4.15,12.62-.32.8,1,1.16,1.31.36,1.64-4.29,4-8.29,4.18-13a.67.67,0,0,0-1.34,0Z" transform="translate(-6.5 -8.56)" style="fill:#e7cb1d"/><path d="M303.8,124.25c0,4.22-2.51,7.75-3.57,11.75a.68.68,0,0,0,1.31.36c1.06-4.11,3.57-7.75,3.6-12.07a.67.67,0,0,0-1.34,0Z" transform="translate(-6.5 -8.56)" style="fill:#e7cb1d"/><path d="M310.49,124.21c-1.38,4-3.49,7.71-4.77,11.75-.25.84,1,1.16,1.31.36,1.28-4,3.38-7.74,4.77-11.74.29-.84-1-1.17-1.31-.37Z" transform="translate(-6.5 -8.56)" style="fill:#e7cb1d"/><path d="M316.38,124.07c-1.49,3.42-2.62,6.94-3.93,10.43-.33.8,1,1.17,1.31.37,1.31-3.35,2.33-6.8,3.82-10.11.29-.8-.84-1.49-1.2-.69Z" transform="translate(-6.5 -8.56)" style="fill:#e7cb1d"/><path d="M321.94,123.49c-.44,3.78-2.84,6.94-3.42,10.69-.14.83,1.17,1.2,1.31.36.58-3.85,3-7.13,3.46-11,.1-.84-1.24-.84-1.35,0Z" transform="translate(-6.5 -8.56)" style="fill:#e7cb1d"/><path d="M327.61,123c-1.16,3.5-2,7.09-3.12,10.59-.3.83,1,1.16,1.3.36,1.17-3.49,2-7.09,3.13-10.58.26-.84-1-1.17-1.31-.37Z" transform="translate(-6.5 -8.56)" style="fill:#e7cb1d"/><path d="M333.39,122.76c-.14,4-2.29,7.6-3.71,11.27-.32.8,1,1.17,1.31.37,1.46-3.79,3.6-7.49,3.75-11.64,0-.87-1.31-.87-1.35,0Z" transform="translate(-6.5 -8.56)" style="fill:#e7cb1d"/><path d="M339.25,122.29c-.62,3.23-1.75,6.36-2.69,9.52-.26.84,1.05,1.2,1.31.37.9-3.17,2-6.29,2.69-9.53.14-.87-1.17-1.23-1.31-.36Z" transform="translate(-6.5 -8.56)" style="fill:#e7cb1d"/><path d="M345,122.29c-.47,2.83-1.35,5.56-2.07,8.32a.68.68,0,0,0,1.3.37c.73-2.77,1.6-5.49,2.08-8.33.14-.87-1.17-1.23-1.31-.36Z" transform="translate(-6.5 -8.56)" style="fill:#e7cb1d"/><path d="M350.37,121.27a32.2,32.2,0,0,1-1.92,8c-.29.83,1,1.16,1.3.36a34.52,34.52,0,0,0,2-8.36c.07-.87-1.27-.87-1.35,0Z" transform="translate(-6.5 -8.56)" style="fill:#e7cb1d"/><path d="M356.34,120.36c-.22,2.91-1.46,5.53-2.22,8.29a.68.68,0,0,0,1.31.36c.8-2.9,2-5.63,2.25-8.65.07-.84-1.27-.84-1.34,0Z" transform="translate(-6.5 -8.56)" style="fill:#e7cb1d"/><path d="M362.3,117.38c.07,2.62-.69,5.16-.91,7.74-.07.88,1.27.88,1.35,0,.18-2.58,1-5.12.9-7.74,0-.84-1.38-.84-1.34,0Z" transform="translate(-6.5 -8.56)" style="fill:#e7cb1d"/><path d="M368.7,114.25a66.46,66.46,0,0,0-2.22,9.24c-.15.83,1.16,1.2,1.31.36a67.36,67.36,0,0,1,2.22-9.23.68.68,0,0,0-1.31-.37Z" transform="translate(-6.5 -8.56)" style="fill:#e7cb1d"/><path d="M372.7,112.18a57.06,57.06,0,0,1-1.75,8.91.68.68,0,0,0,1.31.36,56.5,56.5,0,0,0,1.82-9.27c.07-.84-1.27-.84-1.38,0Z" transform="translate(-6.5 -8.56)" style="fill:#e7cb1d"/><path d="M376.73,108.91c0,2.76-.69,5.45-.72,8.18a.67.67,0,0,0,1.34,0c0-2.77.69-5.46.73-8.18a.68.68,0,0,0-1.35,0Z" transform="translate(-6.5 -8.56)" style="fill:#e7cb1d"/></svg>